<svg height="500pt" preserveAspectRatio="xMidYMid meet" viewBox="0 0 500 500" width="500pt" xmlns="http://www.w3.org/2000/svg"><g transform="matrix(.1 0 0 -.1 0 500)"><path d="m871 3696c-8-10-10-302-9-1087l3-1074 211-3c169-2 214 0 223 11 8 10 12 170 13 553l3 539 89-530c49-291 93-540 97-552 8-23 10-23 218-23 157 0 212 3 218 13 4 6 47 251 95 542l86 530 1-531c1-412 4-534 14-542 16-13 1135-14 1143 0 3 5 11 80 17 166l12 157 96 3 96 3 12-158c7-87 17-164 23-170 8-10 66-13 230-13 196 0 219 2 225 17 10 26-193 2131-207 2149-11 12-67 14-383 12l-371-3-16-30c-8-16-16-31-17-33 0-2-16 4-34 13-70 37-171 45-629 52-408 5-446 5-459-11-9-10-39-202-85-535l-71-518-71 518c-41 301-76 525-84 534-11 13-59 15-345 15-268 0-335-3-344-14zm751-661c47-346 87-637 88-645 4-40 18 55 99 644l87 631 117 3 117 3v-359-358l-110-687c-60-377-110-691-110-697s-65-10-185-10c-183 0-185 0-190 23-3 12-59 342-125 732-66 391-124 724-129 740-6 19-9-252-10-732l-1-763h-185-185v1055 1055l317-2 317-3zm2132 603c7-40 196-2027 196-2057 0-21-3-21-194-21h-193l-12 143c-6 78-14 157-17 175l-5 32h-128-129l-5-42c-4-24-9-88-12-143s-8-115-11-132l-5-33h-172-172l52 24c167 78 243 279 243 646 0 189-14 273-61 368-22 45-44 73-77 97-26 19-53 35-59 35-21 0-15 18 8 25 35 11 99 76 124 125 33 65 45 144 45 289-1 201-32 327-99 403-29 33-40 76-24 91 3 4 163 7 354 7h348zm-1071-289c40-18 47-49 47-215 0-210-15-244-109-244h-41v235 235h40c21 0 50-5 63-11zm25-834c43-36 52-88 52-289 0-208-9-245-71-276-21-11-54-20-74-20h-35v305 305h49c38 0 56-6 79-25z"/><path d="m3376 3268c-5-45-76-1009-76-1030 0-5 45-8 100-8 73 0 100 3 100 13 0 6-20 243-45 526-25 282-45 522-45 532 0 11-6 19-14 19-10 0-16-16-20-52zm49-613c14-165 27-319 31-342l5-43h-61-62l6 38c3 20 16 183 28 362 13 179 24 316 25 305s14-155 28-320z"/></g></svg>